<mxfile host="Electron" agent="Mozilla/5.0 (Windows NT 10.0; Win64; x64) AppleWebKit/537.36 (KHTML, like Gecko) draw.io/24.7.17 Chrome/128.0.6613.36 Electron/32.0.1 Safari/537.36" version="24.7.17">
  <diagram name="Page-1" id="9VpjjpiPC9FYvEvPcHGc">
    <mxGraphModel dx="1235" dy="731" grid="1" gridSize="10" guides="1" tooltips="1" connect="1" arrows="1" fold="1" page="1" pageScale="1" pageWidth="827" pageHeight="1169" math="0" shadow="0">
      <root>
        <mxCell id="0" />
        <mxCell id="1" parent="0" />
        <mxCell id="apFHqM-Mcmgc5b5DlVoX-14" value="user" style="swimlane;fontStyle=1;align=center;verticalAlign=top;childLayout=stackLayout;horizontal=1;startSize=26;horizontalStack=0;resizeParent=1;resizeParentMax=0;resizeLast=0;collapsible=1;marginBottom=0;whiteSpace=wrap;html=1;" vertex="1" parent="1">
          <mxGeometry x="80" y="260" width="160" height="204" as="geometry" />
        </mxCell>
        <mxCell id="apFHqM-Mcmgc5b5DlVoX-15" value="+ _id&lt;div&gt;+ name&amp;nbsp;&lt;/div&gt;&lt;div&gt;+ email&lt;/div&gt;&lt;div&gt;+ password&lt;/div&gt;&lt;div&gt;+ phone_number&lt;/div&gt;&lt;div&gt;+ profile_pic&lt;/div&gt;&lt;div&gt;+ isVerified&lt;/div&gt;&lt;div&gt;+ otp&lt;/div&gt;" style="text;strokeColor=none;fillColor=none;align=left;verticalAlign=top;spacingLeft=4;spacingRight=4;overflow=hidden;rotatable=0;points=[[0,0.5],[1,0.5]];portConstraint=eastwest;whiteSpace=wrap;html=1;" vertex="1" parent="apFHqM-Mcmgc5b5DlVoX-14">
          <mxGeometry y="26" width="160" height="124" as="geometry" />
        </mxCell>
        <mxCell id="apFHqM-Mcmgc5b5DlVoX-16" value="" style="line;strokeWidth=1;fillColor=none;align=left;verticalAlign=middle;spacingTop=-1;spacingLeft=3;spacingRight=3;rotatable=0;labelPosition=right;points=[];portConstraint=eastwest;strokeColor=inherit;" vertex="1" parent="apFHqM-Mcmgc5b5DlVoX-14">
          <mxGeometry y="150" width="160" height="8" as="geometry" />
        </mxCell>
        <mxCell id="apFHqM-Mcmgc5b5DlVoX-17" value="+ login ()&lt;div&gt;+ register ()&lt;/div&gt;" style="text;strokeColor=none;fillColor=none;align=left;verticalAlign=top;spacingLeft=4;spacingRight=4;overflow=hidden;rotatable=0;points=[[0,0.5],[1,0.5]];portConstraint=eastwest;whiteSpace=wrap;html=1;" vertex="1" parent="apFHqM-Mcmgc5b5DlVoX-14">
          <mxGeometry y="158" width="160" height="46" as="geometry" />
        </mxCell>
        <mxCell id="apFHqM-Mcmgc5b5DlVoX-18" value="Booking" style="swimlane;fontStyle=1;align=center;verticalAlign=top;childLayout=stackLayout;horizontal=1;startSize=26;horizontalStack=0;resizeParent=1;resizeParentMax=0;resizeLast=0;collapsible=1;marginBottom=0;whiteSpace=wrap;html=1;" vertex="1" parent="1">
          <mxGeometry x="570" y="260" width="160" height="204" as="geometry" />
        </mxCell>
        <mxCell id="apFHqM-Mcmgc5b5DlVoX-19" value="+ _id&lt;div&gt;+ user_id&lt;/div&gt;&lt;div&gt;+ ride_id&lt;/div&gt;&lt;div&gt;+ seats&lt;/div&gt;&lt;div&gt;+ rideData&lt;/div&gt;&lt;div&gt;+ createdAt&lt;/div&gt;&lt;div&gt;+ updatedAt&lt;/div&gt;&lt;div&gt;+ isCancle&lt;/div&gt;&lt;div&gt;&lt;br&gt;&lt;/div&gt;" style="text;strokeColor=none;fillColor=none;align=left;verticalAlign=top;spacingLeft=4;spacingRight=4;overflow=hidden;rotatable=0;points=[[0,0.5],[1,0.5]];portConstraint=eastwest;whiteSpace=wrap;html=1;" vertex="1" parent="apFHqM-Mcmgc5b5DlVoX-18">
          <mxGeometry y="26" width="160" height="124" as="geometry" />
        </mxCell>
        <mxCell id="apFHqM-Mcmgc5b5DlVoX-20" value="" style="line;strokeWidth=1;fillColor=none;align=left;verticalAlign=middle;spacingTop=-1;spacingLeft=3;spacingRight=3;rotatable=0;labelPosition=right;points=[];portConstraint=eastwest;strokeColor=inherit;" vertex="1" parent="apFHqM-Mcmgc5b5DlVoX-18">
          <mxGeometry y="150" width="160" height="8" as="geometry" />
        </mxCell>
        <mxCell id="apFHqM-Mcmgc5b5DlVoX-21" value="+Book Ride ()&lt;div&gt;+Cancle Ride()&lt;/div&gt;" style="text;strokeColor=none;fillColor=none;align=left;verticalAlign=top;spacingLeft=4;spacingRight=4;overflow=hidden;rotatable=0;points=[[0,0.5],[1,0.5]];portConstraint=eastwest;whiteSpace=wrap;html=1;" vertex="1" parent="apFHqM-Mcmgc5b5DlVoX-18">
          <mxGeometry y="158" width="160" height="46" as="geometry" />
        </mxCell>
        <mxCell id="apFHqM-Mcmgc5b5DlVoX-22" value="Ride" style="swimlane;fontStyle=1;align=center;verticalAlign=top;childLayout=stackLayout;horizontal=1;startSize=26;horizontalStack=0;resizeParent=1;resizeParentMax=0;resizeLast=0;collapsible=1;marginBottom=0;whiteSpace=wrap;html=1;" vertex="1" parent="1">
          <mxGeometry x="330" y="560" width="160" height="204" as="geometry" />
        </mxCell>
        <mxCell id="apFHqM-Mcmgc5b5DlVoX-23" value="+ _id&lt;div&gt;&lt;span style=&quot;background-color: initial;&quot;&gt;+ driver_id&lt;/span&gt;&lt;/div&gt;&lt;div&gt;&lt;span style=&quot;background-color: initial;&quot;&gt;+ vehicel_id&lt;/span&gt;&lt;br&gt;&lt;/div&gt;&lt;div&gt;+ orogin&lt;/div&gt;&lt;div&gt;+ destination&amp;nbsp;&lt;/div&gt;&lt;div&gt;+ departure_time&lt;/div&gt;&lt;div&gt;+ price_per_seat&lt;/div&gt;&lt;div&gt;+ arrival_time&amp;nbsp;&lt;/div&gt;&lt;div&gt;+available_seats&lt;/div&gt;&lt;div&gt;&lt;br&gt;&lt;/div&gt;" style="text;strokeColor=none;fillColor=none;align=left;verticalAlign=top;spacingLeft=4;spacingRight=4;overflow=hidden;rotatable=0;points=[[0,0.5],[1,0.5]];portConstraint=eastwest;whiteSpace=wrap;html=1;" vertex="1" parent="apFHqM-Mcmgc5b5DlVoX-22">
          <mxGeometry y="26" width="160" height="124" as="geometry" />
        </mxCell>
        <mxCell id="apFHqM-Mcmgc5b5DlVoX-24" value="" style="line;strokeWidth=1;fillColor=none;align=left;verticalAlign=middle;spacingTop=-1;spacingLeft=3;spacingRight=3;rotatable=0;labelPosition=right;points=[];portConstraint=eastwest;strokeColor=inherit;" vertex="1" parent="apFHqM-Mcmgc5b5DlVoX-22">
          <mxGeometry y="150" width="160" height="8" as="geometry" />
        </mxCell>
        <mxCell id="apFHqM-Mcmgc5b5DlVoX-25" value="+Publish Ride ()&lt;div&gt;+Update Ride()&lt;/div&gt;" style="text;strokeColor=none;fillColor=none;align=left;verticalAlign=top;spacingLeft=4;spacingRight=4;overflow=hidden;rotatable=0;points=[[0,0.5],[1,0.5]];portConstraint=eastwest;whiteSpace=wrap;html=1;" vertex="1" parent="apFHqM-Mcmgc5b5DlVoX-22">
          <mxGeometry y="158" width="160" height="46" as="geometry" />
        </mxCell>
        <mxCell id="apFHqM-Mcmgc5b5DlVoX-26" style="edgeStyle=orthogonalEdgeStyle;rounded=0;orthogonalLoop=1;jettySize=auto;html=1;entryX=0;entryY=0.5;entryDx=0;entryDy=0;endArrow=none;endFill=0;" edge="1" parent="1" source="apFHqM-Mcmgc5b5DlVoX-15" target="apFHqM-Mcmgc5b5DlVoX-19">
          <mxGeometry relative="1" as="geometry" />
        </mxCell>
        <mxCell id="apFHqM-Mcmgc5b5DlVoX-27" style="edgeStyle=orthogonalEdgeStyle;rounded=0;orthogonalLoop=1;jettySize=auto;html=1;entryX=0.5;entryY=0;entryDx=0;entryDy=0;endArrow=none;endFill=0;exitX=1.005;exitY=0.706;exitDx=0;exitDy=0;exitPerimeter=0;" edge="1" parent="1" source="apFHqM-Mcmgc5b5DlVoX-15" target="apFHqM-Mcmgc5b5DlVoX-22">
          <mxGeometry relative="1" as="geometry">
            <mxPoint x="250" y="358" as="sourcePoint" />
            <mxPoint x="580" y="358" as="targetPoint" />
            <Array as="points">
              <mxPoint x="410" y="374" />
            </Array>
          </mxGeometry>
        </mxCell>
        <mxCell id="apFHqM-Mcmgc5b5DlVoX-28" style="edgeStyle=orthogonalEdgeStyle;rounded=0;orthogonalLoop=1;jettySize=auto;html=1;exitX=0.75;exitY=0;exitDx=0;exitDy=0;entryX=0.513;entryY=1;entryDx=0;entryDy=0;entryPerimeter=0;endArrow=none;endFill=0;" edge="1" parent="1" source="apFHqM-Mcmgc5b5DlVoX-22" target="apFHqM-Mcmgc5b5DlVoX-21">
          <mxGeometry relative="1" as="geometry" />
        </mxCell>
        <mxCell id="apFHqM-Mcmgc5b5DlVoX-29" value="1" style="text;html=1;align=center;verticalAlign=middle;resizable=0;points=[];autosize=1;strokeColor=none;fillColor=none;" vertex="1" parent="1">
          <mxGeometry x="235" y="318" width="30" height="30" as="geometry" />
        </mxCell>
        <mxCell id="apFHqM-Mcmgc5b5DlVoX-30" value="m" style="text;html=1;align=center;verticalAlign=middle;resizable=0;points=[];autosize=1;strokeColor=none;fillColor=none;" vertex="1" parent="1">
          <mxGeometry x="545" y="318" width="30" height="30" as="geometry" />
        </mxCell>
        <mxCell id="apFHqM-Mcmgc5b5DlVoX-31" value="1" style="text;html=1;align=center;verticalAlign=middle;resizable=0;points=[];autosize=1;strokeColor=none;fillColor=none;" vertex="1" parent="1">
          <mxGeometry x="235" y="368" width="30" height="30" as="geometry" />
        </mxCell>
        <mxCell id="apFHqM-Mcmgc5b5DlVoX-32" value="m" style="text;html=1;align=center;verticalAlign=middle;resizable=0;points=[];autosize=1;strokeColor=none;fillColor=none;" vertex="1" parent="1">
          <mxGeometry x="385" y="538" width="30" height="30" as="geometry" />
        </mxCell>
        <mxCell id="apFHqM-Mcmgc5b5DlVoX-33" value="1" style="text;html=1;align=center;verticalAlign=middle;resizable=0;points=[];autosize=1;strokeColor=none;fillColor=none;" vertex="1" parent="1">
          <mxGeometry x="455" y="538" width="30" height="30" as="geometry" />
        </mxCell>
        <mxCell id="apFHqM-Mcmgc5b5DlVoX-34" value="1" style="text;html=1;align=center;verticalAlign=middle;resizable=0;points=[];autosize=1;strokeColor=none;fillColor=none;" vertex="1" parent="1">
          <mxGeometry x="655" y="458" width="30" height="30" as="geometry" />
        </mxCell>
        <mxCell id="apFHqM-Mcmgc5b5DlVoX-35" value="&lt;font style=&quot;font-size: 16px;&quot;&gt;Class Diagram&amp;nbsp;&lt;/font&gt;&lt;div style=&quot;font-size: 16px;&quot;&gt;&lt;br&gt;&lt;/div&gt;" style="text;html=1;align=center;verticalAlign=middle;resizable=0;points=[];autosize=1;strokeColor=none;fillColor=none;" vertex="1" parent="1">
          <mxGeometry x="355" y="130" width="130" height="50" as="geometry" />
        </mxCell>
      </root>
    </mxGraphModel>
  </diagram>
</mxfile>
